<svg class="rich-terminal" viewBox="0 0 994 635.5999999999999" xmlns="http://www.w3.org/2000/svg">
    <!-- Generated with Rich https://www.textualize.io -->
    <style>

    @font-face {
        font-family: "Fira Code";
        src: local("FiraCode-Regular"),
                url("https://cdnjs.cloudflare.com/ajax/libs/firacode/6.2.0/woff2/FiraCode-Regular.woff2") format("woff2"),
                url("https://cdnjs.cloudflare.com/ajax/libs/firacode/6.2.0/woff/FiraCode-Regular.woff") format("woff");
        font-style: normal;
        font-weight: 400;
    }
    @font-face {
        font-family: "Fira Code";
        src: local("FiraCode-Bold"),
                url("https://cdnjs.cloudflare.com/ajax/libs/firacode/6.2.0/woff2/FiraCode-Bold.woff2") format("woff2"),
                url("https://cdnjs.cloudflare.com/ajax/libs/firacode/6.2.0/woff/FiraCode-Bold.woff") format("woff");
        font-style: bold;
        font-weight: 700;
    }

    .terminal-2384573877-matrix {
        font-family: Fira Code, monospace;
        font-size: 20px;
        line-height: 24.4px;
        font-variant-east-asian: full-width;
    }

    .terminal-2384573877-title {
        font-size: 18px;
        font-weight: bold;
        font-family: arial;
    }

    .terminal-2384573877-r1 { fill: #c5c8c6 }
.terminal-2384573877-r2 { fill: #ddedf9;font-weight: bold }
.terminal-2384573877-r3 { fill: #ddedf9 }
.terminal-2384573877-r4 { fill: #fea62b;font-weight: bold }
.terminal-2384573877-r5 { fill: #e0e0e0 }
.terminal-2384573877-r6 { fill: #1e1e1e }
.terminal-2384573877-r7 { fill: #2d2d2d }
.terminal-2384573877-r8 { fill: #b93c5b }
.terminal-2384573877-r9 { fill: #e0e0e0;font-weight: bold }
.terminal-2384573877-r10 { fill: #0d0d0d }
.terminal-2384573877-r11 { fill: #4ebf71 }
.terminal-2384573877-r12 { fill: #4ebf71;font-weight: bold }
.terminal-2384573877-r13 { fill: #b93c5b;font-weight: bold }
.terminal-2384573877-r14 { fill: #a5a5a5 }
.terminal-2384573877-r15 { fill: #6db2ff }
.terminal-2384573877-r16 { fill: #0c7dd4;font-weight: bold }
.terminal-2384573877-r17 { fill: #ffa62b;font-weight: bold }
.terminal-2384573877-r18 { fill: #495259 }
    </style>

    <defs>
    <clipPath id="terminal-2384573877-clip-terminal">
      <rect x="0" y="0" width="975.0" height="584.5999999999999" />
    </clipPath>
    <clipPath id="terminal-2384573877-line-0">
    <rect x="0" y="1.5" width="976" height="24.65"/>
            </clipPath>
<clipPath id="terminal-2384573877-line-1">
    <rect x="0" y="25.9" width="976" height="24.65"/>
            </clipPath>
<clipPath id="terminal-2384573877-line-2">
    <rect x="0" y="50.3" width="976" height="24.65"/>
            </clipPath>
<clipPath id="terminal-2384573877-line-3">
    <rect x="0" y="74.7" width="976" height="24.65"/>
            </clipPath>
<clipPath id="terminal-2384573877-line-4">
    <rect x="0" y="99.1" width="976" height="24.65"/>
            </clipPath>
<clipPath id="terminal-2384573877-line-5">
    <rect x="0" y="123.5" width="976" height="24.65"/>
            </clipPath>
<clipPath id="terminal-2384573877-line-6">
    <rect x="0" y="147.9" width="976" height="24.65"/>
            </clipPath>
<clipPath id="terminal-2384573877-line-7">
    <rect x="0" y="172.3" width="976" height="24.65"/>
            </clipPath>
<clipPath id="terminal-2384573877-line-8">
    <rect x="0" y="196.7" width="976" height="24.65"/>
            </clipPath>
<clipPath id="terminal-2384573877-line-9">
    <rect x="0" y="221.1" width="976" height="24.65"/>
            </clipPath>
<clipPath id="terminal-2384573877-line-10">
    <rect x="0" y="245.5" width="976" height="24.65"/>
            </clipPath>
<clipPath id="terminal-2384573877-line-11">
    <rect x="0" y="269.9" width="976" height="24.65"/>
            </clipPath>
<clipPath id="terminal-2384573877-line-12">
    <rect x="0" y="294.3" width="976" height="24.65"/>
            </clipPath>
<clipPath id="terminal-2384573877-line-13">
    <rect x="0" y="318.7" width="976" height="24.65"/>
            </clipPath>
<clipPath id="terminal-2384573877-line-14">
    <rect x="0" y="343.1" width="976" height="24.65"/>
            </clipPath>
<clipPath id="terminal-2384573877-line-15">
    <rect x="0" y="367.5" width="976" height="24.65"/>
            </clipPath>
<clipPath id="terminal-2384573877-line-16">
    <rect x="0" y="391.9" width="976" height="24.65"/>
            </clipPath>
<clipPath id="terminal-2384573877-line-17">
    <rect x="0" y="416.3" width="976" height="24.65"/>
            </clipPath>
<clipPath id="terminal-2384573877-line-18">
    <rect x="0" y="440.7" width="976" height="24.65"/>
            </clipPath>
<clipPath id="terminal-2384573877-line-19">
    <rect x="0" y="465.1" width="976" height="24.65"/>
            </clipPath>
<clipPath id="terminal-2384573877-line-20">
    <rect x="0" y="489.5" width="976" height="24.65"/>
            </clipPath>
<clipPath id="terminal-2384573877-line-21">
    <rect x="0" y="513.9" width="976" height="24.65"/>
            </clipPath>
<clipPath id="terminal-2384573877-line-22">
    <rect x="0" y="538.3" width="976" height="24.65"/>
            </clipPath>
    </defs>

    <rect fill="#292929" stroke="rgba(255,255,255,0.35)" stroke-width="1" x="1" y="1" width="992" height="633.6" rx="8"/><text class="terminal-2384573877-title" fill="#c5c8c6" text-anchor="middle" x="496" y="27">QuizMD&#160;TUI</text>
            <g transform="translate(26,22)">
            <circle cx="0" cy="0" r="7" fill="#ff5f57"/>
            <circle cx="22" cy="0" r="7" fill="#febc2e"/>
            <circle cx="44" cy="0" r="7" fill="#28c840"/>
            </g>
        
    <g transform="translate(9, 41)" clip-path="url(#terminal-2384573877-clip-terminal)">
    <rect fill="#0178d4" x="0" y="1.5" width="24.4" height="24.65" shape-rendering="crispEdges"/><rect fill="#0178d4" x="24.4" y="1.5" width="73.2" height="24.65" shape-rendering="crispEdges"/><rect fill="#0178d4" x="97.6" y="1.5" width="183" height="24.65" shape-rendering="crispEdges"/><rect fill="#0178d4" x="280.6" y="1.5" width="573.4" height="24.65" shape-rendering="crispEdges"/><rect fill="#0178d4" x="854" y="1.5" width="48.8" height="24.65" shape-rendering="crispEdges"/><rect fill="#0178d4" x="902.8" y="1.5" width="48.8" height="24.65" shape-rendering="crispEdges"/><rect fill="#0178d4" x="951.6" y="1.5" width="24.4" height="24.65" shape-rendering="crispEdges"/><rect fill="#0178d4" x="0" y="25.9" width="24.4" height="24.65" shape-rendering="crispEdges"/><rect fill="#0178d4" x="24.4" y="25.9" width="927.2" height="24.65" shape-rendering="crispEdges"/><rect fill="#0178d4" x="951.6" y="25.9" width="24.4" height="24.65" shape-rendering="crispEdges"/><rect fill="#0178d4" x="0" y="50.3" width="24.4" height="24.65" shape-rendering="crispEdges"/><rect fill="#0178d4" x="24.4" y="50.3" width="927.2" height="24.65" shape-rendering="crispEdges"/><rect fill="#0178d4" x="951.6" y="50.3" width="24.4" height="24.65" shape-rendering="crispEdges"/><rect fill="#1e1e1e" x="0" y="74.7" width="976" height="24.65" shape-rendering="crispEdges"/><rect fill="#1e1e1e" x="0" y="99.1" width="24.4" height="24.65" shape-rendering="crispEdges"/><rect fill="#1e1e1e" x="24.4" y="99.1" width="658.8" height="24.65" shape-rendering="crispEdges"/><rect fill="#1e1e1e" x="683.2" y="99.1" width="268.4" height="24.65" shape-rendering="crispEdges"/><rect fill="#1e1e1e" x="951.6" y="99.1" width="24.4" height="24.65" shape-rendering="crispEdges"/><rect fill="#1e1e1e" x="0" y="123.5" width="24.4" height="24.65" shape-rendering="crispEdges"/><rect fill="#1e1e1e" x="24.4" y="123.5" width="927.2" height="24.65" shape-rendering="crispEdges"/><rect fill="#1e1e1e" x="951.6" y="123.5" width="24.4" height="24.65" shape-rendering="crispEdges"/><rect fill="#1e1e1e" x="0" y="147.9" width="24.4" height="24.65" shape-rendering="crispEdges"/><rect fill="#1e1e1e" x="24.4" y="147.9" width="927.2" height="24.65" shape-rendering="crispEdges"/><rect fill="#1e1e1e" x="951.6" y="147.9" width="24.4" height="24.65" shape-rendering="crispEdges"/><rect fill="#1e1e1e" x="0" y="172.3" width="24.4" height="24.65" shape-rendering="crispEdges"/><rect fill="#1e1e1e" x="24.4" y="172.3" width="927.2" height="24.65" shape-rendering="crispEdges"/><rect fill="#1e1e1e" x="951.6" y="172.3" width="24.4" height="24.65" shape-rendering="crispEdges"/><rect fill="#1e1e1e" x="0" y="196.7" width="24.4" height="24.65" shape-rendering="crispEdges"/><rect fill="#2d2d2d" x="24.4" y="196.7" width="12.2" height="24.65" shape-rendering="crispEdges"/><rect fill="#3d242a" x="36.6" y="196.7" width="915" height="24.65" shape-rendering="crispEdges"/><rect fill="#1e1e1e" x="951.6" y="196.7" width="24.4" height="24.65" shape-rendering="crispEdges"/><rect fill="#1e1e1e" x="0" y="221.1" width="24.4" height="24.65" shape-rendering="crispEdges"/><rect fill="#3d242a" x="24.4" y="221.1" width="12.2" height="24.65" shape-rendering="crispEdges"/><rect fill="#3d242a" x="36.6" y="221.1" width="402.6" height="24.65" shape-rendering="crispEdges"/><rect fill="#3d242a" x="439.2" y="221.1" width="109.8" height="24.65" shape-rendering="crispEdges"/><rect fill="#3d242a" x="549" y="221.1" width="402.6" height="24.65" shape-rendering="crispEdges"/><rect fill="#1e1e1e" x="951.6" y="221.1" width="24.4" height="24.65" shape-rendering="crispEdges"/><rect fill="#1e1e1e" x="0" y="245.5" width="24.4" height="24.65" shape-rendering="crispEdges"/><rect fill="#0d0d0d" x="24.4" y="245.5" width="12.2" height="24.65" shape-rendering="crispEdges"/><rect fill="#3d242a" x="36.6" y="245.5" width="915" height="24.65" shape-rendering="crispEdges"/><rect fill="#1e1e1e" x="951.6" y="245.5" width="24.4" height="24.65" shape-rendering="crispEdges"/><rect fill="#1e1e1e" x="0" y="269.9" width="24.4" height="24.65" shape-rendering="crispEdges"/><rect fill="#2d2d2d" x="24.4" y="269.9" width="12.2" height="24.65" shape-rendering="crispEdges"/><rect fill="#2c4e36" x="36.6" y="269.9" width="915" height="24.65" shape-rendering="crispEdges"/><rect fill="#1e1e1e" x="951.6" y="269.9" width="24.4" height="24.65" shape-rendering="crispEdges"/><rect fill="#1e1e1e" x="0" y="294.3" width="24.4" height="24.65" shape-rendering="crispEdges"/><rect fill="#2c4e36" x="24.4" y="294.3" width="12.2" height="24.65" shape-rendering="crispEdges"/><rect fill="#2c4e36" x="36.6" y="294.3" width="402.6" height="24.65" shape-rendering="crispEdges"/><rect fill="#2c4e36" x="439.2" y="294.3" width="109.8" height="24.65" shape-rendering="crispEdges"/><rect fill="#2c4e36" x="549" y="294.3" width="402.6" height="24.65" shape-rendering="crispEdges"/><rect fill="#1e1e1e" x="951.6" y="294.3" width="24.4" height="24.65" shape-rendering="crispEdges"/><rect fill="#1e1e1e" x="0" y="318.7" width="24.4" height="24.65" shape-rendering="crispEdges"/><rect fill="#1e1e1e" x="24.4" y="318.7" width="927.2" height="24.65" shape-rendering="crispEdges"/><rect fill="#1e1e1e" x="951.6" y="318.7" width="24.4" height="24.65" shape-rendering="crispEdges"/><rect fill="#1e1e1e" x="0" y="343.1" width="24.4" height="24.65" shape-rendering="crispEdges"/><rect fill="#1e1e1e" x="24.4" y="343.1" width="927.2" height="24.65" shape-rendering="crispEdges"/><rect fill="#1e1e1e" x="951.6" y="343.1" width="24.4" height="24.65" shape-rendering="crispEdges"/><rect fill="#1e1e1e" x="0" y="367.5" width="24.4" height="24.65" shape-rendering="crispEdges"/><rect fill="#1e1e1e" x="24.4" y="367.5" width="24.4" height="24.65" shape-rendering="crispEdges"/><rect fill="#1e1e1e" x="48.8" y="367.5" width="0" height="24.65" shape-rendering="crispEdges"/><rect fill="#1e1e1e" x="48.8" y="367.5" width="878.4" height="24.65" shape-rendering="crispEdges"/><rect fill="#1e1e1e" x="927.2" y="367.5" width="24.4" height="24.65" shape-rendering="crispEdges"/><rect fill="#1e1e1e" x="951.6" y="367.5" width="24.4" height="24.65" shape-rendering="crispEdges"/><rect fill="#1e1e1e" x="0" y="391.9" width="24.4" height="24.65" shape-rendering="crispEdges"/><rect fill="#1e1e1e" x="24.4" y="391.9" width="24.4" height="24.65" shape-rendering="crispEdges"/><rect fill="#1e1e1e" x="48.8" y="391.9" width="146.4" height="24.65" shape-rendering="crispEdges"/><rect fill="#1e1e1e" x="195.2" y="391.9" width="732" height="24.65" shape-rendering="crispEdges"/><rect fill="#1e1e1e" x="927.2" y="391.9" width="24.4" height="24.65" shape-rendering="crispEdges"/><rect fill="#1e1e1e" x="951.6" y="391.9" width="24.4" height="24.65" shape-rendering="crispEdges"/><rect fill="#1e1e1e" x="0" y="416.3" width="24.4" height="24.65" shape-rendering="crispEdges"/><rect fill="#1e1e1e" x="24.4" y="416.3" width="24.4" height="24.65" shape-rendering="crispEdges"/><rect fill="#1e1e1e" x="48.8" y="416.3" width="841.8" height="24.65" shape-rendering="crispEdges"/><rect fill="#1e1e1e" x="890.6" y="416.3" width="36.6" height="24.65" shape-rendering="crispEdges"/><rect fill="#1e1e1e" x="927.2" y="416.3" width="24.4" height="24.65" shape-rendering="crispEdges"/><rect fill="#1e1e1e" x="951.6" y="416.3" width="24.4" height="24.65" shape-rendering="crispEdges"/><rect fill="#1e1e1e" x="0" y="440.7" width="24.4" height="24.65" shape-rendering="crispEdges"/><rect fill="#1e1e1e" x="24.4" y="440.7" width="24.4" height="24.65" shape-rendering="crispEdges"/><rect fill="#1e1e1e" x="48.8" y="440.7" width="378.2" height="24.65" shape-rendering="crispEdges"/><rect fill="#1e1e1e" x="427" y="440.7" width="500.2" height="24.65" shape-rendering="crispEdges"/><rect fill="#1e1e1e" x="927.2" y="440.7" width="24.4" height="24.65" shape-rendering="crispEdges"/><rect fill="#1e1e1e" x="951.6" y="440.7" width="24.4" height="24.65" shape-rendering="crispEdges"/><rect fill="#1e1e1e" x="0" y="465.1" width="24.4" height="24.65" shape-rendering="crispEdges"/><rect fill="#1e1e1e" x="24.4" y="465.1" width="927.2" height="24.65" shape-rendering="crispEdges"/><rect fill="#1e1e1e" x="951.6" y="465.1" width="24.4" height="24.65" shape-rendering="crispEdges"/><rect fill="#1e1e1e" x="0" y="489.5" width="976" height="24.65" shape-rendering="crispEdges"/><rect fill="#1e1e1e" x="0" y="513.9" width="24.4" height="24.65" shape-rendering="crispEdges"/><rect fill="#1e1e1e" x="24.4" y="513.9" width="732" height="24.65" shape-rendering="crispEdges"/><rect fill="#0c7dd4" x="756.4" y="513.9" width="195.2" height="24.65" shape-rendering="crispEdges"/><rect fill="#1e1e1e" x="951.6" y="513.9" width="24.4" height="24.65" shape-rendering="crispEdges"/><rect fill="#1e1e1e" x="0" y="538.3" width="24.4" height="24.65" shape-rendering="crispEdges"/><rect fill="#1e1e1e" x="24.4" y="538.3" width="732" height="24.65" shape-rendering="crispEdges"/><rect fill="#0c7dd4" x="756.4" y="538.3" width="48.8" height="24.65" shape-rendering="crispEdges"/><rect fill="#dfeef9" x="805.2" y="538.3" width="97.6" height="24.65" shape-rendering="crispEdges"/><rect fill="#0c7dd4" x="902.8" y="538.3" width="48.8" height="24.65" shape-rendering="crispEdges"/><rect fill="#1e1e1e" x="951.6" y="538.3" width="24.4" height="24.65" shape-rendering="crispEdges"/><rect fill="#242f38" x="0" y="562.7" width="48.8" height="24.65" shape-rendering="crispEdges"/><rect fill="#242f38" x="48.8" y="562.7" width="61" height="24.65" shape-rendering="crispEdges"/><rect fill="#242f38" x="109.8" y="562.7" width="36.6" height="24.65" shape-rendering="crispEdges"/><rect fill="#242f38" x="146.4" y="562.7" width="61" height="24.65" shape-rendering="crispEdges"/><rect fill="#242f38" x="207.4" y="562.7" width="36.6" height="24.65" shape-rendering="crispEdges"/><rect fill="#242f38" x="244" y="562.7" width="61" height="24.65" shape-rendering="crispEdges"/><rect fill="#242f38" x="305" y="562.7" width="36.6" height="24.65" shape-rendering="crispEdges"/><rect fill="#242f38" x="341.6" y="562.7" width="122" height="24.65" shape-rendering="crispEdges"/><rect fill="#242f38" x="463.6" y="562.7" width="292.8" height="24.65" shape-rendering="crispEdges"/><rect fill="#242f38" x="756.4" y="562.7" width="73.2" height="24.65" shape-rendering="crispEdges"/><rect fill="#242f38" x="829.6" y="562.7" width="12.2" height="24.65" shape-rendering="crispEdges"/><rect fill="#242f38" x="841.8" y="562.7" width="24.4" height="24.65" shape-rendering="crispEdges"/><rect fill="#242f38" x="866.2" y="562.7" width="85.4" height="24.65" shape-rendering="crispEdges"/><rect fill="#242f38" x="951.6" y="562.7" width="12.2" height="24.65" shape-rendering="crispEdges"/><rect fill="#242f38" x="963.8" y="562.7" width="12.2" height="24.65" shape-rendering="crispEdges"/>
    <g class="terminal-2384573877-matrix">
    <text class="terminal-2384573877-r2" x="24.4" y="20" textLength="73.2" clip-path="url(#terminal-2384573877-line-0)">Introd</text><text class="terminal-2384573877-r2" x="97.6" y="20" textLength="183" clip-path="url(#terminal-2384573877-line-0)">uction&#160;to&#160;Space</text><text class="terminal-2384573877-r3" x="902.8" y="20" textLength="48.8" clip-path="url(#terminal-2384573877-line-0)">Q1/8</text><text class="terminal-2384573877-r1" x="976" y="20" textLength="12.2" clip-path="url(#terminal-2384573877-line-0)">
</text><text class="terminal-2384573877-r1" x="976" y="44.4" textLength="12.2" clip-path="url(#terminal-2384573877-line-1)">
</text><text class="terminal-2384573877-r1" x="976" y="68.8" textLength="12.2" clip-path="url(#terminal-2384573877-line-2)">
</text><text class="terminal-2384573877-r1" x="976" y="93.2" textLength="12.2" clip-path="url(#terminal-2384573877-line-3)">
</text><text class="terminal-2384573877-r4" x="24.4" y="117.6" textLength="658.8" clip-path="url(#terminal-2384573877-line-4)">Question&#160;1&#160;·&#160;How&#160;many&#160;planets&#160;are&#160;in&#160;our&#160;solar&#160;system?</text><text class="terminal-2384573877-r1" x="976" y="117.6" textLength="12.2" clip-path="url(#terminal-2384573877-line-4)">
</text><text class="terminal-2384573877-r1" x="976" y="142" textLength="12.2" clip-path="url(#terminal-2384573877-line-5)">
</text><text class="terminal-2384573877-r1" x="976" y="166.4" textLength="12.2" clip-path="url(#terminal-2384573877-line-6)">
</text><text class="terminal-2384573877-r1" x="976" y="190.8" textLength="12.2" clip-path="url(#terminal-2384573877-line-7)">
</text><text class="terminal-2384573877-r6" x="24.4" y="215.2" textLength="12.2" clip-path="url(#terminal-2384573877-line-8)">▊</text><text class="terminal-2384573877-r7" x="36.6" y="215.2" textLength="915" clip-path="url(#terminal-2384573877-line-8)">▔▔▔▔▔▔▔▔▔▔▔▔▔▔▔▔▔▔▔▔▔▔▔▔▔▔▔▔▔▔▔▔▔▔▔▔▔▔▔▔▔▔▔▔▔▔▔▔▔▔▔▔▔▔▔▔▔▔▔▔▔▔▔▔▔▔▔▔▔▔▔▔▔▔▔</text><text class="terminal-2384573877-r1" x="976" y="215.2" textLength="12.2" clip-path="url(#terminal-2384573877-line-8)">
</text><text class="terminal-2384573877-r8" x="24.4" y="239.6" textLength="12.2" clip-path="url(#terminal-2384573877-line-9)">█</text><text class="terminal-2384573877-r9" x="439.2" y="239.6" textLength="109.8" clip-path="url(#terminal-2384573877-line-9)">&#160;&#160;&#160;A)&#160;&#160;7&#160;</text><text class="terminal-2384573877-r1" x="976" y="239.6" textLength="12.2" clip-path="url(#terminal-2384573877-line-9)">
</text><text class="terminal-2384573877-r6" x="24.4" y="264" textLength="12.2" clip-path="url(#terminal-2384573877-line-10)">▊</text><text class="terminal-2384573877-r10" x="36.6" y="264" textLength="915" clip-path="url(#terminal-2384573877-line-10)">▁▁▁▁▁▁▁▁▁▁▁▁▁▁▁▁▁▁▁▁▁▁▁▁▁▁▁▁▁▁▁▁▁▁▁▁▁▁▁▁▁▁▁▁▁▁▁▁▁▁▁▁▁▁▁▁▁▁▁▁▁▁▁▁▁▁▁▁▁▁▁▁▁▁▁</text><text class="terminal-2384573877-r1" x="976" y="264" textLength="12.2" clip-path="url(#terminal-2384573877-line-10)">
</text><text class="terminal-2384573877-r6" x="24.4" y="288.4" textLength="12.2" clip-path="url(#terminal-2384573877-line-11)">▊</text><text class="terminal-2384573877-r7" x="36.6" y="288.4" textLength="915" clip-path="url(#terminal-2384573877-line-11)">▔▔▔▔▔▔▔▔▔▔▔▔▔▔▔▔▔▔▔▔▔▔▔▔▔▔▔▔▔▔▔▔▔▔▔▔▔▔▔▔▔▔▔▔▔▔▔▔▔▔▔▔▔▔▔▔▔▔▔▔▔▔▔▔▔▔▔▔▔▔▔▔▔▔▔</text><text class="terminal-2384573877-r1" x="976" y="288.4" textLength="12.2" clip-path="url(#terminal-2384573877-line-11)">
</text><text class="terminal-2384573877-r11" x="24.4" y="312.8" textLength="12.2" clip-path="url(#terminal-2384573877-line-12)">█</text><text class="terminal-2384573877-r9" x="439.2" y="312.8" textLength="109.8" clip-path="url(#terminal-2384573877-line-12)">&#160;&#160;&#160;B)&#160;&#160;8&#160;</text><text class="terminal-2384573877-r1" x="976" y="312.8" textLength="12.2" clip-path="url(#terminal-2384573877-line-12)">
</text><text class="terminal-2384573877-r1" x="976" y="337.2" textLength="12.2" clip-path="url(#terminal-2384573877-line-13)">
</text><text class="terminal-2384573877-r1" x="976" y="361.6" textLength="12.2" clip-path="url(#terminal-2384573877-line-14)">
</text><text class="terminal-2384573877-r1" x="976" y="386" textLength="12.2" clip-path="url(#terminal-2384573877-line-15)">
</text><text class="terminal-2384573877-r13" x="48.8" y="410.4" textLength="134.2" clip-path="url(#terminal-2384573877-line-16)">❌&#160;Incorrect</text><text class="terminal-2384573877-r1" x="976" y="410.4" textLength="12.2" clip-path="url(#terminal-2384573877-line-16)">
</text><text class="terminal-2384573877-r14" x="48.8" y="434.8" textLength="841.8" clip-path="url(#terminal-2384573877-line-17)">Since&#160;2006,&#160;when&#160;Pluto&#160;was&#160;reclassified&#160;as&#160;a&#160;dwarf&#160;planet&#160;by&#160;the&#160;IAU,</text><text class="terminal-2384573877-r1" x="976" y="434.8" textLength="12.2" clip-path="url(#terminal-2384573877-line-17)">
</text><text class="terminal-2384573877-r14" x="48.8" y="459.2" textLength="378.2" clip-path="url(#terminal-2384573877-line-18)">our&#160;solar&#160;system&#160;has&#160;8&#160;planets.</text><text class="terminal-2384573877-r1" x="976" y="459.2" textLength="12.2" clip-path="url(#terminal-2384573877-line-18)">
</text><text class="terminal-2384573877-r1" x="976" y="483.6" textLength="12.2" clip-path="url(#terminal-2384573877-line-19)">
</text><text class="terminal-2384573877-r1" x="976" y="508" textLength="12.2" clip-path="url(#terminal-2384573877-line-20)">
</text><text class="terminal-2384573877-r15" x="756.4" y="532.4" textLength="195.2" clip-path="url(#terminal-2384573877-line-21)">▔▔▔▔▔▔▔▔▔▔▔▔▔▔▔▔</text><text class="terminal-2384573877-r1" x="976" y="532.4" textLength="12.2" clip-path="url(#terminal-2384573877-line-21)">
</text><text class="terminal-2384573877-r16" x="805.2" y="556.8" textLength="97.6" clip-path="url(#terminal-2384573877-line-22)">&#160;Next&#160;→&#160;</text><text class="terminal-2384573877-r1" x="976" y="556.8" textLength="12.2" clip-path="url(#terminal-2384573877-line-22)">
</text><text class="terminal-2384573877-r17" x="0" y="581.2" textLength="48.8" clip-path="url(#terminal-2384573877-line-23)">&#160;^c&#160;</text><text class="terminal-2384573877-r5" x="48.8" y="581.2" textLength="61" clip-path="url(#terminal-2384573877-line-23)">Quit&#160;</text><text class="terminal-2384573877-r17" x="109.8" y="581.2" textLength="36.6" clip-path="url(#terminal-2384573877-line-23)">&#160;n&#160;</text><text class="terminal-2384573877-r5" x="146.4" y="581.2" textLength="61" clip-path="url(#terminal-2384573877-line-23)">Next&#160;</text><text class="terminal-2384573877-r17" x="207.4" y="581.2" textLength="36.6" clip-path="url(#terminal-2384573877-line-23)">&#160;h&#160;</text><text class="terminal-2384573877-r5" x="244" y="581.2" textLength="61" clip-path="url(#terminal-2384573877-line-23)">Hint&#160;</text><text class="terminal-2384573877-r17" x="305" y="581.2" textLength="36.6" clip-path="url(#terminal-2384573877-line-23)">&#160;q&#160;</text><text class="terminal-2384573877-r5" x="341.6" y="581.2" textLength="122" clip-path="url(#terminal-2384573877-line-23)">Quit&#160;quiz&#160;</text><text class="terminal-2384573877-r18" x="829.6" y="581.2" textLength="12.2" clip-path="url(#terminal-2384573877-line-23)">▏</text><text class="terminal-2384573877-r17" x="841.8" y="581.2" textLength="24.4" clip-path="url(#terminal-2384573877-line-23)">^p</text><text class="terminal-2384573877-r5" x="866.2" y="581.2" textLength="85.4" clip-path="url(#terminal-2384573877-line-23)">&#160;palett</text><text class="terminal-2384573877-r5" x="951.6" y="581.2" textLength="12.2" clip-path="url(#terminal-2384573877-line-23)">e</text>
    </g>
    </g>
</svg>
